<?xml version="1.0" encoding="iso-8859-1"?>
<!-- Uploaded to: SVG Repo, www.svgrepo.com, Generator: SVG Repo Mixer Tools -->
<svg height="800px" width="800px" version="1.1" id="Layer_1" xmlns="http://www.w3.org/2000/svg" xmlns:xlink="http://www.w3.org/1999/xlink" 
	 viewBox="0 0 512 512" xml:space="preserve">
<path style="fill:#C0AB91;" d="M290.74,475.561l-6.22-10.107l-39.866-64.785L231,378.486l-13.652-22.184l-50.134-81.469
	c-4.233-6.878-11.728-11.069-19.805-11.075c-0.005,0-0.009,0-0.016,0c-8.082,0-15.585,4.192-19.819,11.075L3.454,476.531
	c-4.42,7.18-4.61,16.19-0.496,23.55C7.07,507.439,14.84,512,23.273,512h124.137h124.106h0.031c12.854,0,23.273-10.42,23.273-23.273
	C294.819,483.84,293.312,479.305,290.74,475.561z"/>
<path style="fill:#A78966;" d="M508.528,476.497L345.619,212.739c-3.966-6.422-10.78-10.491-18.249-10.989
	c-0.515-0.034-1.032-0.053-1.552-0.053c-8.068,0-15.56,4.178-19.8,11.044l-88.669,143.562L231,378.486l13.653,22.184l39.866,64.785
	l6.22,10.107c2.572,3.744,4.079,8.279,4.079,13.166c0,12.853-10.418,23.273-23.273,23.273h55.824h161.358
	c8.437,0,16.215-4.568,20.326-11.937C513.162,492.693,512.962,483.677,508.528,476.497z"/>
<path style="fill:#806749;" d="M325.818,201.697c-8.068,0-15.56,4.178-19.8,11.044l-88.669,143.562L231,378.486l13.653,22.184
	l39.866,64.785l6.22,10.107c2.572,3.744,4.079,8.279,4.079,13.166c0,12.853-10.418,23.273-23.273,23.273h55.824V201.75
	C326.856,201.716,326.338,201.697,325.818,201.697z"/>
<path style="fill:#A78966;" d="M147.394,263.758c-8.082,0-15.585,4.192-19.819,11.075L3.454,476.529
	c-4.42,7.18-4.61,16.19-0.496,23.55C7.07,507.439,14.84,512,23.273,512h124.137V263.758
	C147.405,263.758,147.399,263.758,147.394,263.758z"/>
<path style="fill:#6E76E5;" d="M182.803,163.961c-15.718-12.603-24.733-31.365-24.733-51.475v-0.002
	c0-20.112,9.016-38.875,24.734-51.481c5.509-4.417,8.713-11.095,8.713-18.156s-3.205-13.74-8.713-18.156
	C162.945,8.768,137.97,0,112.48,0C50.46,0,0.002,50.46,0,112.485v0.002C0,174.51,50.46,224.97,112.48,224.97
	c25.488,0,50.463-8.769,70.322-24.694c5.509-4.417,8.715-11.096,8.715-18.157C191.519,175.057,188.312,168.378,182.803,163.961z"/>
<path style="fill:#424EDE;" d="M182.804,61.004c5.509-4.417,8.713-11.095,8.713-18.156s-3.205-13.74-8.713-18.156
	C162.945,8.768,137.97,0,112.48,0C50.46,0,0.002,50.46,0,112.485h158.07C158.07,92.373,167.086,73.61,182.804,61.004z"/>
</svg>